<?xml version="1.0" standalone="no"?>
<!DOCTYPE svg PUBLIC "-//W3C//DTD SVG 20010904//EN"
 "http://www.w3.org/TR/2001/REC-SVG-20010904/DTD/svg10.dtd">
<svg version="1.0" xmlns="http://www.w3.org/2000/svg"
 width="390.000000pt" height="514.000000pt" viewBox="0 0 390.000000 514.000000"
 preserveAspectRatio="xMidYMid meet">
<metadata>
Created by potrace 1.15, written by Peter Selinger 2001-2017
</metadata>
<g transform="translate(0.000000,514.000000) scale(0.100000,-0.100000)"
fill="#000000" stroke="none">
<path d="M2840 4983 c-78 -8 -292 -57 -395 -90 -304 -98 -696 -277 -1235 -566
-484 -259 -710 -399 -723 -448 -9 -35 59 -82 138 -95 22 -4 11 5 -37 31 -38
19 -68 42 -68 49 0 66 933 453 1508 627 359 107 942 206 942 159 0 -35 -123
-222 -231 -350 -61 -73 -310 -353 -475 -535 -162 -179 -503 -597 -699 -856
-110 -145 -230 -302 -267 -347 -100 -122 -118 -167 -99 -240 24 -89 91 -131
207 -132 l70 0 115 -107 c63 -58 195 -185 294 -282 99 -98 248 -237 330 -311
224 -201 364 -337 543 -525 88 -93 288 -299 444 -457 297 -301 358 -351 445
-364 150 -22 251 115 198 267 -9 24 -60 112 -114 194 -54 83 -142 218 -196
300 -266 408 -456 602 -990 1010 -71 55 -227 176 -345 271 -203 161 -340 260
-438 314 -23 13 -42 29 -42 36 0 16 392 465 651 744 198 214 541 604 642 730
225 280 332 495 331 665 -3 232 -182 342 -504 308z"/>
<path d="M1499 3588 c-71 -142 -104 -205 -282 -533 -318 -586 -425 -773 -692
-1210 -109 -179 -299 -585 -366 -783 -16 -49 -29 -107 -29 -135 0 -42 5 -54
34 -83 53 -53 124 -45 188 23 55 59 347 562 428 738 38 82 142 351 225 580 50
138 206 559 282 760 56 149 219 558 232 582 19 37 61 145 61 158 0 44 -27 12
-81 -97z"/>
</g>
</svg>
